<svg width="409" height="280" viewBox="0 0 409 280" fill="none" xmlns="http://www.w3.org/2000/svg">
<rect width="409" height="280" fill="white"/>
<rect width="409" height="280" fill="#5E088F" fill-opacity="0.1"/>
<mask id="mask0_4551_3627" style="mask-type:alpha" maskUnits="userSpaceOnUse" x="0" y="0" width="409" height="280">
<rect width="409" height="280" rx="16" fill="#999795"/>
</mask>
<g mask="url(#mask0_4551_3627)">
</g>
<path d="M257.24 131.642C257.234 131.672 257.234 131.702 257.24 131.732L288.125 127.154C287.963 125.998 287.772 124.851 287.551 123.712C287.116 121.425 286.597 119.186 285.993 116.993C285.389 114.8 284.708 112.637 283.95 110.503C282.817 107.348 281.499 104.261 280.005 101.259C275.966 93.1153 270.666 85.6584 264.301 79.1638C257.899 72.6727 250.519 67.2221 242.43 63.0096L234.386 78.3733L228.002 90.6005C235.774 94.6509 242.475 100.481 247.557 107.615C252.639 114.748 255.957 122.982 257.24 131.642Z" fill="#F03352"/>
<path d="M184.643 21.3429C159.566 25.0158 136.312 36.5687 118.251 54.327L129.308 65.5851L153.567 90.3455L163.232 100.188C171.619 91.9345 182.426 86.5699 194.079 84.8757L184.643 21.3429Z" fill="#FABA6E"/>
<path d="M154.588 231.053L146.787 245.971L154.588 231.053ZM154.665 231.092H154.588L146.838 245.971C157.985 251.789 169.981 255.817 182.383 257.905L185.179 241.33C174.941 239.629 165.024 236.37 155.776 231.665C155.444 231.474 155.048 231.296 154.665 231.092Z" fill="white"/>
<path d="M305.029 157.168L287.895 154.299L270.774 151.418L257.049 149.11C255.073 160.654 249.501 171.281 241.127 179.48L263.024 201.792L275.179 214.173L286.133 225.329C304.212 207.634 316.232 184.69 320.478 159.769L305.029 157.168Z" fill="#5E088F"/>
<path d="M217.367 241.61C228.056 240.029 238.431 236.781 248.111 231.984L240.923 217.539L233.186 202.009L226.968 189.514C221.744 192.109 216.142 193.864 210.37 194.716L217.367 241.61Z" fill="#F58A80"/>
<path d="M249.963 48.5767C240.36 43.5458 230.016 40.0726 219.32 38.2876L216.601 54.3525C225.592 55.8632 234.288 58.7851 242.366 63.0097L249.963 48.5767Z" fill="#78F0A8"/>
<path d="M283.963 110.503C284.729 112.62 285.41 114.783 286.006 116.993C286.601 119.203 287.121 121.438 287.563 123.699C287.776 124.83 287.968 125.977 288.138 127.142L304.212 124.757C304.218 124.728 304.218 124.698 304.212 124.668C302.63 114.029 299.386 103.703 294.598 94.0685L280.018 101.259C281.512 104.261 282.829 107.348 283.963 110.503Z" fill="white"/>
<path d="M286.006 116.993C285.41 114.791 284.729 112.628 283.963 110.503C284.729 112.62 285.41 114.783 286.006 116.993ZM283.963 110.503C282.829 107.348 281.512 104.261 280.018 101.259C281.512 104.261 282.829 107.348 283.963 110.503Z" fill="white"/>
<path d="M147.26 148.026L100.287 154.975C102.675 171.038 108.841 186.308 118.28 199.533C127.718 212.757 140.161 223.559 154.588 231.053H154.665C155.048 231.257 155.444 231.436 155.827 231.627C165.054 236.309 174.937 239.571 185.141 241.304L187.835 225.405L190.708 208.308L193.032 194.551C181.465 192.605 170.809 187.058 162.589 178.702C154.368 170.347 149.003 159.61 147.26 148.026Z" fill="#F03352"/>
<path d="M154.665 231.092C155.048 231.296 155.444 231.474 155.827 231.665C155.444 231.474 155.048 231.296 154.665 231.092ZM204.612 107.787C204.491 107.461 204.273 107.179 203.988 106.979C203.703 106.779 203.364 106.669 203.016 106.665C202.671 106.663 202.334 106.763 202.047 106.954C201.76 107.145 201.537 107.418 201.407 107.736L190.044 135.786L181.924 128.799C181.667 128.578 181.352 128.437 181.016 128.395C180.68 128.352 180.339 128.409 180.035 128.558C179.731 128.708 179.478 128.944 179.308 129.236C179.137 129.528 179.057 129.864 179.077 130.202L180.775 158.991C180.791 159.301 180.893 159.601 181.069 159.857C181.244 160.113 181.487 160.317 181.771 160.444C182.054 160.575 182.368 160.626 182.678 160.592C182.988 160.559 183.284 160.441 183.532 160.253L199.288 148.268L223.546 169.191C223.859 169.459 224.257 169.608 224.67 169.612C225.021 169.615 225.365 169.508 225.653 169.306C225.967 169.091 226.201 168.777 226.317 168.414C226.432 168.052 226.423 167.661 226.291 167.304L204.612 107.787ZM182.754 134.014L188.665 139.114L183.762 151.175L182.754 134.014ZM186.418 153.674L191.385 141.46L196.632 145.948L186.418 153.674ZM192.802 138.094L202.939 113.168L210.945 135.072L199.454 143.806L192.802 138.094ZM202.109 146.101L212.17 138.451L220.891 162.242L202.109 146.101Z" fill="#F03352"/>
<path d="M125.223 97.4089L96.7635 82.568C90.2777 94.466 85.8653 107.379 83.715 120.754L115.34 126.071C116.938 116.015 120.282 106.315 125.223 97.4089Z" fill="#F58A80"/>
<path d="M147.719 128.799C147.86 128.149 148 127.524 148.153 126.874C148.153 126.67 148.243 126.466 148.294 126.262C148.46 125.612 148.651 124.987 148.83 124.311L148.983 123.801C149.187 123.113 149.405 122.437 149.647 121.761C149.647 121.646 149.724 121.519 149.775 121.392C150.017 120.678 150.286 119.976 150.566 119.288C150.566 119.199 150.566 119.122 150.656 119.033C150.949 118.306 151.269 117.592 151.588 116.878V116.751C151.933 116.011 152.29 115.272 152.66 114.545C153.043 113.805 153.439 113.079 153.848 112.352L140.901 105.582C136.828 112.846 134.083 120.777 132.794 129.003L147.272 131.438C147.374 130.763 147.502 130.163 147.63 129.437C147.655 129.245 147.681 129.041 147.719 128.799Z" fill="white"/>
<path d="M147.26 131.438C147.362 130.763 147.489 130.163 147.617 129.437C147.489 130.074 147.362 130.763 147.26 131.438ZM148.83 124.362C148.651 125.012 148.46 125.637 148.294 126.313C148.46 125.663 148.651 124.974 148.83 124.362ZM152.711 114.596C152.341 115.323 151.984 116.062 151.639 116.802C151.945 116.049 152.341 115.323 152.711 114.596ZM151.588 116.929C151.269 117.643 150.949 118.357 150.656 119.084C150.949 118.357 151.256 117.643 151.588 116.929ZM149.647 121.812C149.405 122.488 149.187 123.164 148.983 123.852C149.187 123.164 149.392 122.488 149.647 121.812ZM148.115 126.925C147.962 127.562 147.821 128.2 147.681 128.85C147.86 128.2 148 127.524 148.115 126.925Z" fill="white"/>
</svg>
